<svg xmlns="http://www.w3.org/2000/svg" viewBox="0 0 512 512"><linearGradient id="a" x1="189.285" x2="339.072" y1="199.05" y2="458.488" gradientUnits="userSpaceOnUse"><stop offset="0" stop-color="#75260d"/><stop offset="1" stop-color="#440a00"/></linearGradient><linearGradient id="b" x1="62.518" x2="149.65" y1="67.735" y2="218.652" gradientUnits="userSpaceOnUse"><stop offset="0" stop-color="#f25b27"/><stop offset="1" stop-color="#c93f14"/></linearGradient><linearGradient id="c" x1="188.732" x2="351.343" y1="66.929" y2="348.578" gradientUnits="userSpaceOnUse"><stop offset="0" stop-color="#9b3e15"/><stop offset="1" stop-color="#7f1605"/></linearGradient><linearGradient id="d" x1="152.314" x2="376.044" y1="93.286" y2="222.457" gradientUnits="userSpaceOnUse"><stop offset="0" stop-color="#ffb743"/><stop offset="1" stop-color="#ea7a00"/></linearGradient><ellipse cx="264.179" cy="328.769" fill="url(#a)" rx="211.821" ry="122.306"/><path fill="url(#b)" d="M36 126.363c0-35.804 14.657-51.78 26.95-58.878 28.252-16.312 62.738 2.663 66.573 4.88l25.11 14.499c-17.4 8.955-31.469 20.01-41.05 32.476l-8.386-4.842a45.1 45.1 0 0 0-14.714-4.933 3.94 3.94 0 0 0-4.194 2.761c-.79 2.511-1.638 6.874-1.638 14.038a85.67 85.67 0 0 0 14.804 48.048v34.253a165 165 0 0 0 4.128 36.584C93.02 238.646 36 199.61 36 126.363"/><path fill="url(#c)" d="M264.179 62.76c90.973 0 164.723 42.583 164.723 95.111v50.794a164.723 164.723 0 0 1-329.446 0V157.87c0-52.528 73.749-95.111 164.723-95.111"/><path fill="url(#d)" d="M264.178 231.948c84.68 0 143.693-39.038 143.693-74.076s-59.014-74.08-143.693-74.08-143.691 39.043-143.691 74.08 59.011 74.076 143.69 74.076"/><path fill="#ffeae6" d="M353.39 125.072q.239.137.473.279c10.693 6.474 9.809 17.037-1.251 23.258-35.505 19.973-74.24 3.288-102.861 13.99 18.382-16.613-10.549-38.995 23.817-59.626 10.704-6.427 28.944-6.97 40.149-.8q.245.135.483.272c9.765 5.638 10.906 14.376 3.417 20.715 10.92-4.36 26.014-3.723 35.774 1.912m-5.175 43.264c-41.22 12.03-83.027-3.57-131.025 14.736a2.96 2.96 0 0 1-2.421-.142c-.593-.342-.824-.894-.249-1.4 31.439-27.865 4.38-52.027 25.005-75.946 1.203-1.39.522-2.844-1.074-3.765a8.6 8.6 0 0 0-6.222-.669c-32.403 8.392-98.476 33.608-45.258 91.954.282.313 1.103 1.482.198 3.535-.318.713.073 1.386.85 1.836a5.05 5.05 0 0 0 3.178.49 14.5 14.5 0 0 1 6.102.103c100.903 30.635 144.22-7.72 158.594-26.52 1.041-1.358.354-2.72-1.169-3.599a8.7 8.7 0 0 0-6.509-.613"/></svg>