<svg xmlns="http://www.w3.org/2000/svg" xml:space="preserve" viewBox="0 0 512 512"><path fill="#e5e1e5" d="M104.715 407.286a237 237 0 0 1-20.74-23.71l-67.308 67.308c-12.223 12.223-12.223 32.225 0 44.449s32.225 12.223 44.449 0l67.308-67.308a237 237 0 0 1-23.709-20.739"/><path fill="#d7d0d6" d="m104.652 407.221-43.536 43.536c-12.202 12.202-32.155 12.221-44.384.062l-.065.065c-12.223 12.223-12.223 32.225 0 44.449s32.225 12.223 44.449 0l67.308-67.308a237 237 0 0 1-23.709-20.739q-.03-.033-.063-.065"/><circle cx="269.897" cy="242.103" r="234.603" fill="#efedef"/><circle cx="269.897" cy="242.103" r="234.603" fill="#efedef"/><path fill="#e5e1e5" d="M287.908 8.182c64.005 41.895 106.298 114.213 106.298 196.421 0 129.568-105.035 234.603-234.603 234.603-6.06 0-12.067-.23-18.011-.682 36.873 24.135 80.945 38.182 128.305 38.182 129.568 0 234.603-105.035 234.603-234.603 0-123.507-95.44-224.723-216.592-233.921"/><circle cx="269.897" cy="242.103" r="195.315" fill="#ea9b58"/><path fill="#d88a55" d="M346.023 62.18c30.217 39.492 48.184 88.856 48.184 142.423 0 108.439-73.579 199.677-173.53 226.556 15.725 4.082 32.218 6.259 49.22 6.259 107.87 0 195.316-87.446 195.316-195.316-.001-80.863-49.142-150.247-119.19-179.922"/><path fill="#fff3de" d="m309.111 222.427-39.214 24.221v-18.043a47.47 47.47 0 0 1 22.523-40.385l28.594-17.661c4.638-2.865 10.62.472 10.62 5.923v5.56a47.46 47.46 0 0 1-22.523 40.385m-78.428 0 39.214 24.221v-18.043a47.47 47.47 0 0 0-22.523-40.385l-28.594-17.66c-4.638-2.865-10.62.472-10.62 5.923v5.56a47.46 47.46 0 0 0 22.523 40.384m-6.318 70.45L269.897 321v-12.483a55.12 55.12 0 0 0-26.152-46.892l-34.912-21.563c-4.638-2.865-10.62.472-10.62 5.923a55.11 55.11 0 0 0 26.152 46.892m91.064 0L269.897 321v-12.483a55.12 55.12 0 0 1 26.152-46.892l34.912-21.563c4.638-2.865 10.62.472 10.62 5.923a55.12 55.12 0 0 1-26.152 46.892M269.897 117.71l19.002-24.633c3.46-4.485 10.525-3.289 12.316 2.085l5.99 17.971c8.338 25.015-9.272 51.674-35.618 52.751a41 41 0 0 1-3.382 0c-26.346-1.078-43.957-27.736-35.618-52.751l5.99-17.971c1.791-5.374 8.856-6.57 12.316-2.085z"/><path fill="#fff3de" d="M387.947 178.666c12.657 42.236 2.19 89.921-31.407 123.139-47.795 47.255-125.49 47.255-173.285 0-33.597-33.218-44.064-80.903-31.407-123.139 1.367-4.562-4.927-7.303-7.315-3.182-32.097 55.393-24.441 127.506 22.971 174.92 56.606 56.609 148.181 56.609 204.787 0 47.412-47.415 55.068-119.527 22.971-174.92-2.388-4.121-8.682-1.38-7.315 3.182"/><path fill="#ffe5c2" d="M395.262 175.484c-.764-1.319-1.929-1.929-3.115-2.007a237 237 0 0 1 2.059 31.126c0 74.506-34.739 140.892-88.895 183.867 24.531-6.172 47.769-18.855 66.979-38.066 47.413-47.414 55.069-119.527 22.972-174.92"/><g fill="#fff3de"><circle cx="359.897" cy="128" r="15"/><circle cx="179.897" cy="128" r="15"/></g><g fill="none" stroke="#000" stroke-linecap="round" stroke-linejoin="round" stroke-miterlimit="10" stroke-width="15"><path d="M436.405 76.847C393.901 34.024 334.999 7.5 269.897 7.5 140.329 7.5 35.294 112.535 35.294 242.103s105.035 234.603 234.603 234.603S504.5 371.671 504.5 242.103c0-51.836-16.824-99.735-45.292-138.563"/><circle cx="269.897" cy="242.103" r="195.315"/><path d="M269.897 165.884V337m39.214-114.573-39.214 24.221v-18.043a47.47 47.47 0 0 1 22.523-40.385l28.594-17.661c4.638-2.865 10.62.472 10.62 5.923v5.56a47.46 47.46 0 0 1-22.523 40.385m-78.428 0 39.214 24.221v-18.043a47.47 47.47 0 0 0-22.523-40.385l-28.594-17.66c-4.638-2.865-10.62.472-10.62 5.923v5.56a47.46 47.46 0 0 0 22.523 40.384m-6.318 70.45L269.897 321v-12.483a55.12 55.12 0 0 0-26.152-46.892l-34.912-21.563c-4.638-2.865-10.62.472-10.62 5.923v0a55.11 55.11 0 0 0 26.152 46.892m91.064 0L269.897 321v-12.483a55.12 55.12 0 0 1 26.152-46.892l34.912-21.563c4.638-2.865 10.62.472 10.62 5.923v0a55.12 55.12 0 0 1-26.152 46.892M269.897 117.71l19.002-24.633c3.46-4.485 10.525-3.289 12.316 2.085l5.99 17.971c8.338 25.015-9.272 51.674-35.618 52.751a41 41 0 0 1-3.382 0c-26.346-1.078-43.957-27.736-35.618-52.751l5.99-17.971c1.791-5.374 8.856-6.57 12.316-2.085z"/><path d="M154.466 257.381a123.75 123.75 0 0 1-2.619-78.715c1.367-4.562-4.927-7.303-7.315-3.182-32.097 55.393-24.441 127.506 22.971 174.92 56.606 56.609 148.181 56.609 204.787 0 47.412-47.415 55.068-119.527 22.971-174.92-2.388-4.121-8.682-1.38-7.315 3.182 12.657 42.236 2.19 89.921-31.407 123.139-47.795 47.255-125.49 47.255-173.285 0a124.5 124.5 0 0 1-11.92-13.647"/><circle cx="359.897" cy="128" r="15"/><circle cx="179.897" cy="128" r="15"/><path d="M83.281 384.27 63.15 404.401M38.401 429.15l-21.734 21.734c-12.223 12.223-12.223 32.225 0 44.449h0c12.224 12.223 32.225 12.223 44.449 0l66.614-66.614"/></g><g/><g/><g/><g/><g/><g/><g/><g/><g/><g/><g/><g/><g/><g/><g/></svg>